PathFileType	4	(X/Y/Z)	C:/Users/opensim2020/Desktop/walking_exp_matlab/subject03_walking06_straight_02.trc	
DataRate	CameraRate	NumFrames	NumMarkers	Units	OrigDataRate	OrigDataStartFrame	OrigNumFrames	
100.00	100.00	5	44	mm	100.00	1489	238	
Frame#	Time	LFHD			RFHD			LBHD			RBHD			C7			T10			CLAV			STRN			RBAK			LSHO			LUPA			LELB			LFRM			LWRA			LWRB			LFIN			RSHO			RUPA			RELB			RFRM			RWRA			RWRB			RFIN			LASI			RASI			LPSI			RPSI			LTHI			LKNE			LTIB			LANK			LHEE			LTOE			RTHI			RKNE			RTIB			RANK			RHEE			RTOE			*39			*40			*41			*42			*43			
		X1	Y1	Z1	X2	Y2	Z2	X3	Y3	Z3	X4	Y4	Z4	X5	Y5	Z5	X6	Y6	Z6	X7	Y7	Z7	X8	Y8	Z8	X9	Y9	Z9	X10	Y10	Z10	X11	Y11	Z11	X12	Y12	Z12	X13	Y13	Z13	X14	Y14	Z14	X15	Y15	Z15	X16	Y16	Z16	X17	Y17	Z17	X18	Y18	Z18	X19	Y19	Z19	X20	Y20	Z20	X21	Y21	Z21	X22	Y22	Z22	X23	Y23	Z23	X24	Y24	Z24	X25	Y25	Z25	X26	Y26	Z26	X27	Y27	Z27	X28	Y28	Z28	X29	Y29	Z29	X30	Y30	Z30	X31	Y31	Z31	X32	Y32	Z32	X33	Y33	Z33	X34	Y34	Z34	X35	Y35	Z35	X36	Y36	Z36	X37	Y37	Z37	X38	Y38	Z38	X39	Y39	Z39	X40	Y40	Z40	X41	Y41	Z41	X42	Y42	Z42	X43	Y43	Z43	X44	Y44	Z44	

209	2.080	-898.01648	-952.38507	1603.28442	-1029.95081	-949.67969	1622.47253	-904.79181	-820.46191	1570.59778	-1034.10059	-823.72046	1589.18579	-971.42297	-784.75793	1412.59729	-972.05200	-761.97424	1095.91296	-984.21844	-906.62799	1338.73254	-992.59180	-956.54108	1176.28979	-1070.23291	-728.03198	1237.88586	-824.72516	-873.81879	1370.58765	-757.17694	-866.50305	1171.51648	-748.63086	-870.93475	1047.65796	-755.47253	-897.95825	920.00616	-791.44867	-915.30542	803.04138	-738.49640	-896.46338	806.30042	-754.04553	-906.28601	721.92255	-1137.77710	-850.27332	1367.35278	-1211.08765	-876.33221	1147.28198	-1222.13831	-908.87177	1038.32471	-1219.50342	-950.97180	907.92450	-1178.58875	-997.02936	821.77875	-1224.72266	-970.30487	808.95258	-1206.64026	-1003.10211	742.05219	-890.94659	-953.31720	939.17419	-1123.17920	-903.24158	933.83154	-904.82233	-785.61108	961.64789	-1051.10938	-755.40961	964.12311	-830.34680	-938.12939	641.85187	-873.57202	-981.89996	472.20474	-865.19550	-947.82166	275.14188	-903.52368	-939.07623	65.71329	-938.46613	-899.21124	31.35376	-921.00787	-1091.66382	30.08518	-1168.88318	-818.20123	638.14063	-1160.60156	-825.84631	456.90659	-1154.62659	-676.06055	335.56396	-1103.67090	-513.54480	196.93448	-1043.10535	-470.42621	208.28592	-1098.12317	-561.03833	60.46996	-939.73889	-875.27979	1676.96582												 
210	2.090	-896.65039	-961.56201	1603.97314	-1028.62549	-958.73035	1623.37585	-903.67084	-829.56055	1570.72864	-1032.92346	-832.91925	1589.61060	-969.98730	-793.95062	1413.44360	-970.80353	-771.54077	1096.36316	-983.39783	-915.97052	1339.29553	-991.74542	-965.87262	1176.82471	-1068.16736	-736.99078	1237.99304	-823.79840	-883.77905	1370.82507	-755.90881	-879.37793	1171.93066	-746.73907	-885.81445	1048.23792	-753.77325	-915.04694	921.06323	-789.84619	-934.49316	804.65741	-736.84485	-915.91821	807.35333	-752.38684	-928.16888	723.50116	-1136.83533	-858.97308	1367.48010	-1209.62830	-885.15314	1147.25354	-1220.29028	-917.63580	1038.21924	-1217.34058	-959.65002	907.84650	-1176.13879	-1005.63922	821.84766	-1222.26257	-978.93048	808.94739	-1204.37036	-1012.18207	742.44873	-889.75952	-962.92566	939.75854	-1122.31604	-912.94147	934.48389	-903.76007	-795.16064	961.98779	-1050.05542	-765.10089	963.97174	-829.91083	-946.59918	642.27594	-873.01935	-987.88245	472.08676	-864.84845	-951.21735	275.08344	-903.41064	-939.46808	66.17292	-938.52911	-899.18445	31.68693	-921.08990	-1091.79419	29.99445	-1168.26196	-832.61267	638.58557	-1160.93054	-844.18958	457.19998	-1153.51514	-693.53107	337.18335	-1101.56177	-530.88550	199.17952	-1040.01575	-488.23184	209.06326	-1100.18103	-579.83405	63.57296	-938.59320	-883.95050	1676.83716												 
211	2.100	-895.55273	-970.58917	1604.31763	-1027.34705	-967.72076	1624.13599	-902.66302	-838.62817	1570.93188	-1031.84314	-841.99335	1589.97717	-968.91437	-803.53192	1413.70630	-969.68365	-780.85907	1096.77185	-982.57800	-925.12665	1339.77734	-990.88965	-975.15442	1177.36255	-1065.96008	-745.94128	1237.93616	-823.03503	-893.46924	1371.03857	-754.61108	-892.12012	1172.40710	-744.97131	-900.65948	1048.89490	-752.12622	-932.13708	922.25409	-788.33923	-953.65515	806.44080	-734.91644	-935.81580	808.93701	-750.65894	-950.23181	725.41608	-1135.95581	-867.37744	1367.61511	-1208.25415	-893.63019	1147.14685	-1218.62402	-926.17706	1038.13904	-1215.33093	-968.22412	907.80682	-1173.88635	-1014.27545	822.01666	-1219.97217	-987.68268	808.98468	-1202.42224	-1021.49707	743.03223	-888.35272	-972.30975	940.61353	-1121.28528	-922.82990	935.21014	-903.02124	-804.20898	962.50720	-1049.30286	-774.76312	963.92657	-829.72546	-955.26422	642.54626	-872.53326	-993.33881	471.62665	-864.55347	-954.39380	275.01813	-903.52850	-939.66071	66.31953	-938.61298	-899.29144	31.86869	-921.11243	-1091.98853	29.88592	-1167.82312	-847.19983	639.05078	-1161.13062	-861.93420	458.01819	-1152.64185	-711.33661	338.23203	-1099.42932	-549.27618	200.16017	-1037.22400	-506.57785	208.64301	-1101.75671	-600.11047	65.96311	-939.04163	-891.09283	1677.21252												 
212	2.110	-894.34906	-979.50726	1605.06384	-1026.27112	-976.61688	1624.73132	-901.59381	-847.69238	1571.07043	-1030.78333	-851.00293	1590.25513	-967.75903	-812.23352	1414.35913	-968.58960	-790.15082	1097.07019	-981.79767	-934.06195	1340.15088	-990.02582	-984.06226	1177.69885	-1063.89490	-754.55145	1237.84766	-822.20178	-902.97955	1371.17249	-753.09161	-905.48059	1173.07837	-743.35077	-915.65656	1049.84253	-750.63770	-949.18176	923.66119	-786.94977	-972.63214	808.39020	-733.54199	-955.39819	810.23035	-748.97815	-972.33154	727.69666	-1135.23523	-875.45148	1367.72534	-1207.07166	-901.77325	1147.01929	-1217.00806	-934.57269	1038.06995	-1213.47449	-976.69659	907.80853	-1171.91382	-1022.78638	822.19171	-1218.07117	-996.42365	809.10156	-1200.80591	-1030.95471	743.80060	-886.75458	-981.32587	941.50256	-1119.84509	-933.27338	936.00085	-902.70074	-812.98798	962.99170	-1048.90234	-784.53894	963.96991	-829.55450	-964.13391	642.89709	-871.92072	-999.65088	471.41541	-864.16345	-957.39020	274.94965	-903.44269	-939.85028	66.47954	-938.61255	-899.27563	32.06451	-921.22302	-1092.03284	29.79603	-1167.35596	-861.78461	639.41907	-1161.25525	-879.56836	458.71677	-1151.69861	-729.42523	338.73666	-1097.40637	-568.26129	200.13803	-1034.78479	-525.45245	207.08275	-1102.84644	-621.76935	67.53571	-936.06470	-901.49396	1677.97668												 
213	2.120	-893.31567	-988.33203	1605.34363	-1025.23132	-985.46796	1625.19238	-900.70502	-856.60229	1571.21204	-1029.88892	-859.89111	1590.52014	-966.55450	-821.14453	1414.65991	-968.00781	-799.10175	1097.43518	-981.04620	-942.82819	1340.46899	-989.11523	-992.95251	1178.08459	-1061.86328	-763.23621	1237.63159	-821.33685	-912.20819	1371.32666	-752.25696	-917.36548	1173.56506	-742.01788	-930.14221	1050.44885	-749.31433	-966.28448	925.28839	-785.70093	-991.46472	810.46649	-731.99023	-974.85297	812.20776	-747.22559	-994.55292	730.39941	-1134.57837	-883.40973	1367.87500	-1206.06421	-909.58606	1146.83789	-1215.62769	-942.67371	1038.00867	-1211.86646	-985.08575	907.88458	-1170.04407	-1031.33289	822.48755	-1216.20618	-1004.98761	809.29468	-1199.42957	-1040.50562	744.70667	-885.09241	-990.05286	942.29236	-1118.57312	-943.20471	936.76099	-902.14362	-822.04102	963.09485	-1048.68811	-794.17334	964.06543	-829.26392	-972.74390	643.21979	-871.42950	-1005.13074	470.98914	-863.78497	-960.36566	274.84119	-903.28381	-940.20703	66.72347	-938.68115	-899.37286	32.16251	-921.19727	-1092.21179	29.75298	-1166.95337	-876.34241	639.60352	-1161.21790	-897.08258	459.31042	-1151.13623	-747.05194	339.19916	-1095.65454	-587.89600	199.00627	-1032.71130	-545.12720	204.40285	-1103.48047	-644.60095	68.14728	-935.05121	-910.19159	1678.19348												 
